<svg xmlns="http://www.w3.org/2000/svg" fill="none" viewBox="0 0 10 10" height="10" width="10">
  <path stroke="#bb9476" stroke-linecap="round" stroke-linejoin="round" d="M4.99992 9.50155c-2.48605 0 -4.501385 -2.01531 -4.501385 -4.50139 0 -2.48604 2.015335 -4.501381 4.501385 -4.501381 2.48608 0 4.50139 2.015341 4.50139 4.501381 0 2.48608 -2.01531 4.50139 -4.50139 4.50139" stroke-width="1"></path>
  <path stroke="#bb9476" stroke-linecap="round" stroke-linejoin="round" d="M3.36365 4.87378h3.27262" stroke-width="1"></path>
  <path stroke="#bb9476" stroke-linecap="round" stroke-linejoin="round" d="m3.81873 7.49651 1.18118 -1.4997m0 0V4.87158m0 1.12523 1.18118 1.49963" stroke-width="1"></path>
  <path stroke="#bb9476" stroke-linecap="round" stroke-linejoin="round" d="M4.9999 3.47831c-0.26915 0 -0.48733 -0.21818 -0.48733 -0.48733 0 -0.26914 0.21818 -0.48732 0.48733 -0.48732" stroke-width="1"></path>
  <path stroke="#bb9476" stroke-linecap="round" stroke-linejoin="round" d="M4.99962 3.47855c0.26914 0 0.48732 -0.21818 0.48732 -0.48732s-0.21818 -0.48732 -0.48732 -0.48732" stroke-width="1"></path>
</svg>