<svg xmlns="http://www.w3.org/2000/svg" fill="none" viewBox="0 0 96 96" id="Swift--Streamline-Svg-Logos" height="24" width="24">
  <desc>
    Swift Streamline Icon: https://streamlinehq.com
  </desc>
  <path fill="url(#a)" d="m21.8846 1.01855 52.0469 0c2.5326 0 4.9918.40375 7.3776 1.24796 3.4502 1.24795 6.5701 3.45021 8.9192 6.31316 2.3858 2.86293 3.9641 6.38653 4.5147 10.05703.2202 1.3581.2569 2.7161.2569 4.0742l0 47.2019 0 3.5603c0 1.615-.0734 3.2667-.4038 4.845-.7341 3.6338-2.4592 7.0473-4.9551 9.8001-2.4592 2.7528-5.6892 4.8083-9.1761 5.9094-2.1288.6607-4.3311.9543-6.5701.9543-.991 0-52.157 0-52.9278-.0367-3.7438-.1835-7.451-1.3947-10.5709-3.4869-3.04642-2.0555-5.54233-4.9184-7.15732-8.2218-1.39477-2.8262-2.09216-5.9828-2.09216-9.1394l0-52.1937c-.07341-3.1199.58727-6.2031 1.94534-8.9926 1.57829-3.30341 4.03749-6.20306 7.08394-8.25851 3.1199-2.12885 6.7903-3.3768 10.5342-3.56033.367-.07341.7708-.07341 1.1745-.07341Z"></path>
  <path fill="url(#b)" d="M80.2816 77.8777c-.3303-.5139-.6974-1.0278-1.1011-1.5049-.9176-1.1012-1.9821-2.0555-3.1566-2.863-1.4682-.991-3.1933-1.615-4.9551-1.6884-1.248-.0734-2.4959.1468-3.6705.5873-1.1745.4037-2.3123.991-3.4135 1.5783-1.2846.6607-2.5693 1.3213-3.9274 1.8719-1.615.6607-3.3034 1.1746-5.0285 1.5416-2.1655.4037-4.3678.5506-6.5334.5139-3.9273-.0734-7.8547-.6607-11.5986-1.7619-3.3034-.991-6.4599-2.349-9.433-4.0741-2.606-1.5049-5.0285-3.23-7.3042-5.1754-1.8719-1.615-3.597-3.3401-5.212-5.1753-1.1011-1.2847-2.1656-2.6427-3.1566-4.0375-.4037-.5506-.7708-1.1378-1.1011-1.7251L1 45.5043V21.83C1 10.3415 10.2862 1.01855 21.7747 1.01855h18.5358L54.0379 14.9662c30.9786 21.0684 20.9583 44.3023 20.9583 44.3023s8.809 9.9102 5.2854 18.6092Z"></path>
  <path fill="#ffffff" d="M54.1113 14.9663c30.9786 21.0684 20.9582 44.3023 20.9582 44.3023s8.8091 9.9469 5.2488 18.6458c0 0-3.6338-6.0929-9.7267-6.0929-5.8727 0-9.3229 6.0929-21.1418 6.0929-26.3171 0-38.7599-21.9859-38.7599-21.9859 23.7111 15.5994 39.8978 4.5513 39.8978 4.5513-10.681-6.203-33.4011-35.8602-33.4011-35.8602 19.7837 16.8473 28.3359 21.2886 28.3359 21.2886-5.102-4.2211-19.4167-24.849-19.4167-24.849 11.4518 11.5986 34.2086 27.7853 34.2086 27.7853 6.4599-17.9118-6.2031-33.8782-6.2031-33.8782Z"></path>
  <defs>
    <linearGradient id="a" x1="56.897" x2="39.144" y1="-2.334" y2="98.346" gradientUnits="userSpaceOnUse">
      <stop stop-color="#faae42"></stop>
      <stop offset="1" stop-color="#ef3e31"></stop>
    </linearGradient>
    <linearGradient id="b" x1="48.94" x2="35.947" y1="2.537" y2="76.223" gradientUnits="userSpaceOnUse">
      <stop stop-color="#e39f3a"></stop>
      <stop offset="1" stop-color="#d33929"></stop>
    </linearGradient>
  </defs>
</svg>